<svg width="36" height="48" viewBox="0 0 36 48" fill="none" xmlns="http://www.w3.org/2000/svg">
<path d="M0 18.0003C0 6.00079 8.05822 0 18.0003 0C27.9423 0 36.0005 6.00079 36.0005 18.0003C36.0005 29.9997 20.9996 48 18.0003 48C15.0009 48 0 30.0018 0 18.0003Z" fill="#1E1E1E"/>
<path d="M18.0001 27.0003C22.9708 27.0003 27.0003 22.9708 27.0003 18.0001C27.0003 13.0295 22.9708 9 18.0001 9C13.0295 9 9 13.0295 9 18.0001C9 22.9708 13.0295 27.0003 18.0001 27.0003Z" fill="#FAF7F1"/>
<path fill-rule="evenodd" clip-rule="evenodd" d="M20.0029 16C22.2122 16 24.0029 17.7907 24.0029 20C24.0029 22.2093 22.2122 24 20.0029 24C19.9319 24 19.8614 23.9981 19.7913 23.9945C19.7719 23.9979 19.7518 23.9997 19.731 23.9997H16.5458C16.2648 23.9997 16.1108 23.674 16.2872 23.4565L16.9732 22.6119C16.3686 21.9111 16.0029 20.9983 16.0029 20C16.0029 17.7907 17.7936 16 20.0029 16Z" fill="#FCD79B"/>
<path d="M22.1691 20.4178C22.3992 20.4178 22.5858 20.2313 22.5858 20.0011C22.5858 19.771 22.3992 19.5845 22.1691 19.5845C21.939 19.5845 21.7524 19.771 21.7524 20.0011C21.7524 20.2313 21.939 20.4178 22.1691 20.4178Z" fill="#FAF7F1"/>
<path d="M20.0055 20.4173C20.2357 20.4173 20.4222 20.2308 20.4222 20.0006C20.4222 19.7705 20.2357 19.584 20.0055 19.584C19.7754 19.584 19.5889 19.7705 19.5889 20.0006C19.5889 20.2308 19.7754 20.4173 20.0055 20.4173Z" fill="#FAF7F1"/>
<path d="M17.8376 20.4173C18.0677 20.4173 18.2542 20.2308 18.2542 20.0006C18.2542 19.7705 18.0677 19.584 17.8376 19.584C17.6074 19.584 17.4209 19.7705 17.4209 20.0006C17.4209 20.2308 17.6074 20.4173 17.8376 20.4173Z" fill="#FAF7F1"/>
<path fill-rule="evenodd" clip-rule="evenodd" d="M15.9995 20C13.7902 20 11.9995 18.2093 11.9995 16C11.9995 13.7919 13.7902 12.0012 15.9995 12C16.0721 12 16.1443 12.0019 16.216 12.0058C16.2347 12.0026 16.2541 12.0009 16.2741 12.0009H19.4593C19.7403 12.0009 19.8955 12.3266 19.718 12.5441L19.0311 13.3903C19.6346 14.0908 19.9995 15.0027 19.9995 16C19.9995 18.2093 18.2088 20 15.9995 20Z" fill="#FBB039"/>
<path d="M13.8366 16.4173C14.0667 16.4173 14.2533 16.2308 14.2533 16.0007C14.2533 15.7705 14.0667 15.584 13.8366 15.584C13.6065 15.584 13.4199 15.7705 13.4199 16.0007C13.4199 16.2308 13.6065 16.4173 13.8366 16.4173Z" fill="#F5F0E4"/>
<path d="M16.0026 16.4173C16.2327 16.4173 16.4193 16.2308 16.4193 16.0007C16.4193 15.7705 16.2327 15.584 16.0026 15.584C15.7725 15.584 15.5859 15.7705 15.5859 16.0007C15.5859 16.2308 15.7725 16.4173 16.0026 16.4173Z" fill="#F5F0E4"/>
<path d="M18.1696 16.4173C18.3997 16.4173 18.5863 16.2308 18.5863 16.0007C18.5863 15.7705 18.3997 15.584 18.1696 15.584C17.9395 15.584 17.7529 15.7705 17.7529 16.0007C17.7529 16.2308 17.9395 16.4173 18.1696 16.4173Z" fill="#F5F0E4"/>
</svg>
